<svg width="134" height="22" viewBox="0 0 134 22" fill="none" xmlns="http://www.w3.org/2000/svg">
<path d="M17.0183 12.0324L12.379 19.9779L7.7398 12.0324H17.0183ZM18.2611 11.3223H6.49194L12.379 21.3833L18.2611 11.3223Z" fill="white"/>
<path d="M25.0843 2.14975L29.7235 10.0953H20.445L25.0843 2.14975ZM25.0843 0.729492L19.1971 10.7905H30.9713L25.0843 0.729492Z" fill="white"/>
<path d="M0.85144 0.729492L5.78757 9.62848L11.1815 0.952948L0.85144 0.729492Z" fill="#4CAF4F"/>
<path d="M12.3792 1.50903L17.5569 10.3584H7.19153L12.3792 1.50903Z" fill="#4CAF4F"/>
<path d="M18.8903 12.2905L24.073 21.3832H13.4611L18.7293 12.2905H18.8903Z" fill="#4CAF4F"/>
<path d="M20.0122 11.7393L25.0842 20.6929L30.2266 11.7393H20.0122Z" fill="#4CAF4F"/>
<path d="M52.5136 2.16602V19.6903H49.3133L41.6893 8.6606H41.5609V19.6903H37.8558V2.16602H41.1074L48.6716 13.1871H48.8256V2.16602H52.5136Z" fill="white"/>
<path d="M61.496 19.947C60.1441 19.947 58.9804 19.6732 58.0049 19.1255C57.0351 18.5722 56.2878 17.7907 55.763 16.781C55.2382 15.7656 54.9758 14.5648 54.9758 13.1786C54.9758 11.8266 55.2382 10.6401 55.763 9.61896C56.2878 8.59785 57.0266 7.80207 57.9792 7.23162C58.9376 6.66117 60.0614 6.37595 61.3506 6.37595C62.2177 6.37595 63.0249 6.51571 63.7722 6.79523C64.5251 7.06904 65.1812 7.48262 65.7402 8.03596C66.305 8.5893 66.7442 9.28525 67.0579 10.1238C67.3717 10.9567 67.5286 11.9321 67.5286 13.0502V14.0514H56.4304V11.7924H64.0973C64.0973 11.2676 63.9832 10.8026 63.755 10.3976C63.5269 9.99261 63.2103 9.67601 62.8052 9.44783C62.4059 9.21394 61.941 9.097 61.4105 9.097C60.8571 9.097 60.3666 9.22535 59.9387 9.48205C59.5166 9.73305 59.1857 10.0725 58.9461 10.5003C58.7065 10.9224 58.5839 11.3931 58.5782 11.9122V14.0599C58.5782 14.7102 58.698 15.2721 58.9376 15.7456C59.1829 16.2191 59.528 16.5842 59.9729 16.8409C60.4179 17.0976 60.9456 17.2259 61.5559 17.2259C61.961 17.2259 62.3318 17.1689 62.6683 17.0548C63.0049 16.9407 63.293 16.7696 63.5326 16.5414C63.7721 16.3132 63.9547 16.0337 64.0802 15.7028L67.4516 15.9253C67.2804 16.7353 66.9296 17.4427 66.3991 18.0474C65.8743 18.6464 65.1954 19.1141 64.3626 19.4507C63.5354 19.7816 62.5799 19.947 61.496 19.947Z" fill="white"/>
<path d="M72.7183 6.54708L75.1313 11.1421L77.6042 6.54708H81.3435L77.5357 13.1187L81.4462 19.6903H77.724L75.1313 15.1466L72.5813 19.6903H68.8164L72.7183 13.1187L68.9533 6.54708H72.7183Z" fill="white"/>
<path d="M88.9761 19.947C87.6298 19.947 86.4718 19.6618 85.5021 19.0913C84.538 18.5151 83.7964 17.7165 83.2773 16.6954C82.7639 15.6743 82.5072 14.4992 82.5072 13.17C82.5072 11.8238 82.7668 10.6429 83.2859 9.62752C83.8107 8.60641 84.5551 7.81063 85.5192 7.24018C86.4832 6.66402 87.6298 6.37595 88.959 6.37595C90.1056 6.37595 91.1096 6.58416 91.971 7.00059C92.8324 7.41702 93.514 8.00173 94.016 8.75473C94.518 9.50772 94.7947 10.3919 94.8461 11.4073H91.4062C91.3093 10.7513 91.0526 10.2236 90.6361 9.82432C90.2254 9.4193 89.6863 9.21679 89.0189 9.21679C88.4542 9.21679 87.9607 9.37081 87.5386 9.67886C87.1221 9.9812 86.797 10.4233 86.5631 11.0052C86.3292 11.587 86.2123 12.2915 86.2123 13.1187C86.2123 13.9572 86.3264 14.6703 86.5545 15.2579C86.7884 15.8454 87.1164 16.2932 87.5386 16.6013C87.9607 16.9093 88.4542 17.0634 89.0189 17.0634C89.4353 17.0634 89.809 16.9778 90.1398 16.8066C90.4764 16.6355 90.7531 16.3874 90.9698 16.0622C91.1923 15.7313 91.3378 15.3349 91.4062 14.8728H94.8461C94.789 15.8768 94.5152 16.761 94.0246 17.5254C93.5397 18.2841 92.8694 18.8774 92.0138 19.3052C91.1581 19.7331 90.1455 19.947 88.9761 19.947Z" fill="white"/>
<path d="M103.17 19.947C101.818 19.947 100.654 19.6732 99.6785 19.1255C98.7087 18.5722 97.9614 17.7907 97.4366 16.781C96.9118 15.7656 96.6494 14.5648 96.6494 13.1786C96.6494 11.8266 96.9118 10.6401 97.4366 9.61896C97.9614 8.59785 98.7002 7.80207 99.6528 7.23162C100.611 6.66117 101.735 6.37595 103.024 6.37595C103.891 6.37595 104.698 6.51571 105.446 6.79523C106.199 7.06904 106.855 7.48262 107.414 8.03596C107.979 8.5893 108.418 9.28525 108.732 10.1238C109.045 10.9567 109.202 11.9321 109.202 13.0502V14.0514H98.104V11.7924H105.771C105.771 11.2676 105.657 10.8026 105.429 10.3976C105.2 9.99261 104.884 9.67601 104.479 9.44783C104.08 9.21394 103.615 9.097 103.084 9.097C102.531 9.097 102.04 9.22535 101.612 9.48205C101.19 9.73305 100.859 10.0725 100.62 10.5003C100.38 10.9224 100.257 11.3931 100.252 11.9122V14.0599C100.252 14.7102 100.372 15.2721 100.611 15.7456C100.856 16.2191 101.202 16.5842 101.647 16.8409C102.091 17.0976 102.619 17.2259 103.23 17.2259C103.635 17.2259 104.005 17.1689 104.342 17.0548C104.678 16.9407 104.967 16.7696 105.206 16.5414C105.446 16.3132 105.628 16.0337 105.754 15.7028L109.125 15.9253C108.954 16.7353 108.603 17.4427 108.073 18.0474C107.548 18.6464 106.869 19.1141 106.036 19.4507C105.209 19.7816 104.254 19.947 103.17 19.947Z" fill="white"/>
<path d="M115.226 12.0919V19.6903H111.581V6.54708H115.055V8.86597H115.209C115.5 8.10156 115.988 7.49688 116.672 7.05193C117.357 6.60127 118.187 6.37595 119.162 6.37595C120.075 6.37595 120.871 6.5756 121.55 6.97492C122.228 7.37424 122.756 7.94469 123.133 8.68627C123.509 9.42216 123.697 10.3007 123.697 11.3218V19.6903H120.052V11.9721C120.058 11.1677 119.853 10.5402 119.436 10.0896C119.02 9.63322 118.446 9.40504 117.716 9.40504C117.226 9.40504 116.792 9.51058 116.416 9.72164C116.045 9.93271 115.754 10.2408 115.543 10.6458C115.337 11.0451 115.232 11.5271 115.226 12.0919Z" fill="white"/>
<path d="M133.561 6.54708V9.28525H125.646V6.54708H133.561ZM127.443 3.39819H131.088V15.6515C131.088 15.9881 131.14 16.2505 131.242 16.4387C131.345 16.6213 131.488 16.7496 131.67 16.8238C131.858 16.8979 132.075 16.935 132.32 16.935C132.492 16.935 132.663 16.9207 132.834 16.8922C133.005 16.858 133.136 16.8323 133.227 16.8152L133.801 19.5277C133.618 19.5847 133.361 19.6503 133.031 19.7245C132.7 19.8044 132.298 19.8529 131.824 19.87C130.946 19.9042 130.176 19.7873 129.514 19.5191C128.858 19.251 128.347 18.8346 127.982 18.2699C127.617 17.7051 127.437 16.992 127.443 16.1307V3.39819Z" fill="white"/>
</svg>
