<svg width="52" height="19" viewBox="0 0 52 19" fill="none" xmlns="http://www.w3.org/2000/svg">
<path d="M20.1196 6.06689V12.8656H18.8781L15.9202 8.58654H15.8704V12.8656H14.433V6.06689H15.6945L18.6291 10.3427H18.6888V6.06689H20.1196Z" fill="#263238"/>
<path d="M23.6045 12.9652C23.08 12.9652 22.6285 12.859 22.25 12.6465C21.8738 12.4319 21.5839 12.1287 21.3803 11.7369C21.1767 11.343 21.0749 10.8771 21.0749 10.3393C21.0749 9.81483 21.1767 9.3545 21.3803 8.95835C21.5839 8.5622 21.8705 8.25347 22.2401 8.03215C22.6119 7.81084 23.0479 7.70018 23.548 7.70018C23.8844 7.70018 24.1976 7.75441 24.4875 7.86285C24.7796 7.96908 25.0342 8.12953 25.251 8.34421C25.4701 8.55888 25.6406 8.82888 25.7623 9.15421C25.884 9.47733 25.9449 9.85577 25.9449 10.2895V10.678H21.6392V9.80155H24.6137C24.6137 9.59794 24.5694 9.41757 24.4809 9.26044C24.3923 9.10331 24.2695 8.98048 24.1124 8.89196C23.9575 8.80122 23.7771 8.75585 23.5713 8.75585C23.3566 8.75585 23.1663 8.80564 23.0003 8.90523C22.8365 9.00261 22.7082 9.13429 22.6152 9.30028C22.5223 9.46405 22.4747 9.64663 22.4725 9.84803V10.6813C22.4725 10.9336 22.5189 11.1516 22.6119 11.3353C22.707 11.5189 22.8409 11.6606 23.0136 11.7602C23.1862 11.8598 23.3909 11.9096 23.6277 11.9096C23.7848 11.9096 23.9287 11.8874 24.0593 11.8432C24.1898 11.7989 24.3016 11.7325 24.3946 11.644C24.4875 11.5555 24.5583 11.447 24.607 11.3187L25.915 11.405C25.8486 11.7192 25.7125 11.9937 25.5067 12.2283C25.3031 12.4606 25.0397 12.6421 24.7166 12.7727C24.3957 12.901 24.025 12.9652 23.6045 12.9652Z" fill="#263238"/>
<path d="M27.9583 7.76658L28.8944 9.54926L29.8538 7.76658H31.3045L29.8272 10.3161L31.3443 12.8656H29.9003L28.8944 11.1029L27.9051 12.8656H26.4445L27.9583 10.3161L26.4976 7.76658H27.9583Z" fill="#263238"/>
<path d="M34.2657 12.9652C33.7434 12.9652 33.2941 12.8546 32.9179 12.6333C32.5439 12.4097 32.2562 12.0999 32.0548 11.7037C31.8556 11.3076 31.756 10.8517 31.756 10.336C31.756 9.81372 31.8567 9.35561 32.0581 8.96167C32.2617 8.56552 32.5505 8.25679 32.9245 8.03547C33.2985 7.81195 33.7434 7.70018 34.259 7.70018C34.7039 7.70018 35.0934 7.78096 35.4276 7.94252C35.7618 8.10408 36.0262 8.33093 36.221 8.62306C36.4157 8.91519 36.5231 9.25823 36.543 9.65217H35.2085C35.1708 9.39766 35.0713 9.19294 34.9097 9.03802C34.7504 8.88089 34.5412 8.80232 34.2823 8.80232C34.0632 8.80232 33.8717 8.86208 33.708 8.98159C33.5464 9.09888 33.4203 9.2704 33.3295 9.49614C33.2388 9.72188 33.1934 9.9952 33.1934 10.3161C33.1934 10.6414 33.2377 10.9181 33.3262 11.146C33.4169 11.374 33.5442 11.5477 33.708 11.6672C33.8717 11.7867 34.0632 11.8465 34.2823 11.8465C34.4438 11.8465 34.5888 11.8133 34.7172 11.7469C34.8477 11.6805 34.9551 11.5842 35.0392 11.4581C35.1255 11.3297 35.1819 11.1759 35.2085 10.9966H36.543C36.5209 11.3862 36.4146 11.7292 36.2243 12.0257C36.0362 12.3201 35.7761 12.5503 35.4442 12.7162C35.1122 12.8822 34.7194 12.9652 34.2657 12.9652Z" fill="#263238"/>
<path d="M39.7722 12.9652C39.2477 12.9652 38.7962 12.859 38.4178 12.6465C38.0416 12.4319 37.7516 12.1287 37.548 11.7369C37.3444 11.343 37.2426 10.8771 37.2426 10.3393C37.2426 9.81483 37.3444 9.3545 37.548 8.95835C37.7516 8.5622 38.0382 8.25347 38.4078 8.03215C38.7796 7.81084 39.2156 7.70018 39.7158 7.70018C40.0522 7.70018 40.3653 7.75441 40.6553 7.86285C40.9474 7.96908 41.2019 8.12953 41.4188 8.34421C41.6379 8.55888 41.8083 8.82888 41.93 9.15421C42.0517 9.47733 42.1126 9.85577 42.1126 10.2895V10.678H37.807V9.80155H40.7814C40.7814 9.59794 40.7371 9.41757 40.6486 9.26044C40.5601 9.10331 40.4373 8.98048 40.2801 8.89196C40.1252 8.80122 39.9448 8.75585 39.739 8.75585C39.5243 8.75585 39.334 8.80564 39.168 8.90523C39.0043 9.00261 38.8759 9.13429 38.783 9.30028C38.69 9.46405 38.6424 9.64663 38.6402 9.84803V10.6813C38.6402 10.9336 38.6867 11.1516 38.7796 11.3353C38.8748 11.5189 39.0087 11.6606 39.1813 11.7602C39.3539 11.8598 39.5587 11.9096 39.7955 11.9096C39.9526 11.9096 40.0964 11.8874 40.227 11.8432C40.3576 11.7989 40.4694 11.7325 40.5623 11.644C40.6553 11.5555 40.7261 11.447 40.7748 11.3187L42.0827 11.405C42.0163 11.7192 41.8802 11.9937 41.6744 12.2283C41.4708 12.4606 41.2074 12.6421 40.8843 12.7727C40.5634 12.901 40.1927 12.9652 39.7722 12.9652Z" fill="#263238"/>
<path d="M44.4497 9.91774V12.8656H43.0355V7.76658H44.3833V8.66622H44.443C44.5559 8.36966 44.7451 8.13506 45.0107 7.96244C45.2763 7.7876 45.5983 7.70018 45.9767 7.70018C46.3308 7.70018 46.6396 7.77764 46.9029 7.93256C47.1663 8.08748 47.371 8.3088 47.5171 8.5965C47.6631 8.882 47.7362 9.22282 47.7362 9.61897V12.8656H46.322V9.87127C46.3242 9.55921 46.2445 9.31577 46.083 9.14093C45.9214 8.96388 45.699 8.87536 45.4157 8.87536C45.2254 8.87536 45.0572 8.9163 44.9111 8.99819C44.7673 9.08007 44.6544 9.19958 44.5725 9.35671C44.4928 9.51163 44.4519 9.69864 44.4497 9.91774Z" fill="#263238"/>
<path d="M51.5629 7.76658V8.82888H48.4922V7.76658H51.5629ZM49.1894 6.54493H50.6036V11.2987C50.6036 11.4293 50.6235 11.5311 50.6633 11.6041C50.7031 11.675 50.7585 11.7248 50.8293 11.7535C50.9023 11.7823 50.9864 11.7967 51.0816 11.7967C51.148 11.7967 51.2144 11.7912 51.2808 11.7801C51.3472 11.7668 51.3981 11.7569 51.4335 11.7502L51.6559 12.8026C51.5851 12.8247 51.4855 12.8501 51.3571 12.8789C51.2288 12.9099 51.0727 12.9287 50.8891 12.9353C50.5482 12.9486 50.2495 12.9033 49.9927 12.7992C49.7382 12.6952 49.5401 12.5337 49.3985 12.3146C49.2569 12.0955 49.1872 11.8188 49.1894 11.4846V6.54493Z" fill="#263238"/>
<path d="M6.34895 9.89465L4.5491 12.9772L2.74926 9.89465H6.34895ZM6.83112 9.61914H2.26514L4.5491 13.5224L6.83112 9.61914Z" fill="#263238"/>
<path d="M9.47819 6.06065L11.278 9.1432H7.67833L9.47819 6.06065ZM9.47819 5.50964L7.19421 9.41293H11.7621L9.47819 5.50964Z" fill="#263238"/>
<path d="M0.0767822 5.50964L1.99181 8.96211L4.08446 5.59634L0.0767822 5.50964Z" fill="#4CAF4F"/>
<path d="M4.54913 5.81201L6.55786 9.24521H2.5365L4.54913 5.81201Z" fill="#4CAF4F"/>
<path d="M7.07508 9.99487L9.08576 13.5225H4.96875L7.01261 9.99487H7.07508Z" fill="#4CAF4F"/>
<path d="M7.5105 9.78088L9.47822 13.2545L11.4733 9.78088H7.5105Z" fill="#4CAF4F"/>
</svg>
