<svg width="124" height="23" viewBox="0 0 124 23" fill="none" xmlns="http://www.w3.org/2000/svg">
<g clip-path="url(#clip0_350_711)">
<path opacity="0.1" fill-rule="evenodd" clip-rule="evenodd" d="M0.85144 11.7743C0.85144 5.62346 5.8377 0.637207 11.9886 0.637207C18.1394 0.637207 23.1257 5.62346 23.1257 11.7743C23.1257 17.9252 18.1394 22.9114 11.9886 22.9114C5.8377 22.9114 0.85144 17.9252 0.85144 11.7743Z" fill="white"/>
<path fill-rule="evenodd" clip-rule="evenodd" d="M11.9892 5.83447C10.376 5.83447 10.1736 5.84153 9.53998 5.87036C8.90763 5.89932 8.476 5.99943 8.09833 6.14632C7.70766 6.29803 7.37626 6.50097 7.04611 6.83125C6.7157 7.16141 6.51276 7.49281 6.36055 7.88335C6.21329 8.26115 6.11305 8.6929 6.08459 9.325C6.05625 9.95859 6.04883 10.1612 6.04883 11.7743C6.04883 13.3875 6.05601 13.5893 6.08471 14.2229C6.1138 14.8553 6.21391 15.2869 6.36067 15.6646C6.51251 16.0552 6.71545 16.3866 7.04573 16.7168C7.37577 17.0472 7.70716 17.2506 8.09758 17.4023C8.47551 17.5492 8.90726 17.6493 9.53948 17.6783C10.1731 17.7071 10.3754 17.7142 11.9884 17.7142C13.6017 17.7142 13.8036 17.7071 14.4371 17.6783C15.0695 17.6493 15.5016 17.5492 15.8795 17.4023C16.2701 17.2506 16.601 17.0472 16.931 16.7168C17.2614 16.3866 17.4644 16.0552 17.6166 15.6647C17.7626 15.2869 17.8628 14.8551 17.8925 14.223C17.921 13.5894 17.9284 13.3875 17.9284 11.7743C17.9284 10.1612 17.921 9.95871 17.8925 9.32513C17.8628 8.69278 17.7626 8.26115 17.6166 7.88348C17.4644 7.49281 17.2614 7.16141 16.931 6.83125C16.6006 6.50085 16.2702 6.29791 15.8792 6.14632C15.5005 5.99943 15.0686 5.89932 14.4363 5.87036C13.8027 5.84153 13.601 5.83447 11.9873 5.83447H11.9892ZM11.4563 6.90487C11.6144 6.90462 11.7909 6.90487 11.9892 6.90487C13.5751 6.90487 13.7631 6.91056 14.3893 6.93902C14.9685 6.9655 15.2828 7.06227 15.4922 7.14358C15.7694 7.25124 15.967 7.37993 16.1748 7.58783C16.3827 7.79572 16.5114 7.99372 16.6193 8.27091C16.7006 8.48004 16.7975 8.79436 16.8238 9.3735C16.8523 9.99966 16.8585 10.1878 16.8585 11.773C16.8585 13.3581 16.8523 13.5462 16.8238 14.1724C16.7973 14.7515 16.7006 15.0659 16.6193 15.275C16.5116 15.5522 16.3827 15.7496 16.1748 15.9573C15.9669 16.1652 15.7695 16.2939 15.4922 16.4016C15.283 16.4833 14.9685 16.5798 14.3893 16.6063C13.7632 16.6347 13.5751 16.6409 11.9892 16.6409C10.4031 16.6409 10.2151 16.6347 9.58896 16.6063C9.00982 16.5795 8.6955 16.4828 8.486 16.4015C8.20881 16.2938 8.01081 16.1651 7.80292 15.9572C7.59502 15.7493 7.46632 15.5518 7.35842 15.2745C7.27712 15.0654 7.18022 14.751 7.15386 14.1719C7.1254 13.5457 7.11971 13.3577 7.11971 11.7715C7.11971 10.1853 7.1254 9.99817 7.15386 9.37201C7.18035 8.79287 7.27712 8.47856 7.35842 8.26918C7.46608 7.99198 7.59502 7.79399 7.80292 7.58609C8.01081 7.3782 8.20881 7.2495 8.486 7.1416C8.69538 7.05992 9.00982 6.9634 9.58896 6.93679C10.1369 6.91204 10.3493 6.90462 11.4563 6.90338V6.90487ZM15.1598 7.89113C14.7663 7.89113 14.447 8.21003 14.447 8.60367C14.447 8.99718 14.7663 9.31645 15.1598 9.31645C15.5533 9.31645 15.8726 8.99718 15.8726 8.60367C15.8726 8.21015 15.5533 7.89113 15.1598 7.89113ZM11.9892 8.72395C10.3046 8.72395 8.93882 10.0897 8.93882 11.7743C8.93882 13.4589 10.3046 14.8241 11.9892 14.8241C13.6738 14.8241 15.0391 13.4589 15.0391 11.7743C15.0391 10.0897 13.6738 8.72395 11.9892 8.72395ZM11.9892 9.79436C13.0826 9.79436 13.9691 10.6808 13.9691 11.7743C13.9691 12.8677 13.0826 13.7543 11.9892 13.7543C10.8956 13.7543 10.0092 12.8677 10.0092 11.7743C10.0092 10.6808 10.8956 9.79436 11.9892 9.79436Z" fill="white"/>
<path opacity="0.1" fill-rule="evenodd" clip-rule="evenodd" d="M34.2628 11.7743C34.2628 5.62346 39.2491 0.637207 45.3999 0.637207C51.5508 0.637207 56.537 5.62346 56.537 11.7743C56.537 17.9252 51.5508 22.9114 45.3999 22.9114C39.2491 22.9114 34.2628 17.9252 34.2628 11.7743Z" fill="white"/>
<path fill-rule="evenodd" clip-rule="evenodd" d="M51.3397 11.766C51.3397 12.1677 51.2988 12.5689 51.2184 12.9599C51.1401 13.3416 51.0241 13.7164 50.8721 14.0746C50.7236 14.4266 50.5395 14.7657 50.3242 15.082C50.1122 15.3962 49.868 15.6911 49.5997 15.9598C49.3308 16.2274 49.035 16.471 48.7209 16.6839C48.4036 16.8976 48.064 17.0815 47.7118 17.2307C47.3531 17.3819 46.9774 17.4977 46.596 17.5759C46.2045 17.6565 45.8019 17.6976 45.3996 17.6976C44.997 17.6976 44.5945 17.6565 44.2035 17.5759C43.8215 17.4977 43.4459 17.3819 43.0874 17.2307C42.7353 17.0815 42.3953 16.8976 42.078 16.6839C41.7639 16.471 41.4681 16.2274 41.1998 15.9598C40.9312 15.6911 40.687 15.3962 40.4747 15.082C40.2606 14.7657 40.0761 14.4265 39.9271 14.0746C39.7751 13.7164 39.6588 13.3416 39.5802 12.9599C39.5007 12.5689 39.4601 12.1677 39.4601 11.766C39.4601 11.364 39.5007 10.962 39.5802 10.5719C39.6588 10.1901 39.7751 9.8148 39.9271 9.45712C40.0762 9.10494 40.2606 8.76551 40.4747 8.44922C40.687 8.1347 40.9312 7.84042 41.1998 7.57136C41.4681 7.30373 41.7639 7.06076 42.0781 6.84817C42.3954 6.63355 42.7353 6.44966 43.0874 6.3002C43.4459 6.14869 43.8215 6.03257 44.2035 5.95496C44.5945 5.87503 44.9971 5.83447 45.3996 5.83447C45.8019 5.83447 46.2045 5.87503 46.596 5.95496C46.9774 6.03259 47.3531 6.14872 47.7119 6.3002C48.064 6.44963 48.4036 6.63355 48.7209 6.84817C49.035 7.06076 49.3309 7.30373 49.5997 7.57136C49.868 7.84042 50.1123 8.1347 50.3243 8.44922C50.5395 8.76551 50.7236 9.10497 50.8721 9.45712C51.0241 9.8148 51.1401 10.1901 51.2184 10.5719C51.2988 10.962 51.3397 11.364 51.3397 11.766ZM43.2353 7.18442C41.8207 7.85144 40.765 9.15301 40.4358 10.7216C40.5695 10.7228 42.6833 10.7494 45.1188 10.1033C44.2409 8.54565 43.3029 7.27451 43.2353 7.18442ZM45.5391 10.8833C42.9272 11.6641 40.421 11.6079 40.3311 11.6044C40.3296 11.6589 40.327 11.7116 40.327 11.766C40.327 13.0673 40.8186 14.2536 41.6267 15.1506C41.6249 15.148 43.0131 12.6888 45.7505 11.8048C45.8166 11.7828 45.884 11.7631 45.9507 11.744C45.8233 11.4561 45.6844 11.1677 45.5391 10.8833ZM48.7496 7.96439C47.8565 7.17804 46.6839 6.70105 45.3996 6.70105C44.9874 6.70105 44.5875 6.75087 44.2043 6.84297C44.2803 6.94493 45.2331 8.20711 46.1006 9.79771C48.0146 9.08119 48.7371 7.98291 48.7496 7.96439ZM46.2964 12.5833C46.2851 12.5871 46.2738 12.5903 46.2628 12.5944C43.2699 13.6362 42.2925 15.7359 42.2819 15.7588C43.1431 16.4275 44.2232 16.831 45.3996 16.831C46.1021 16.831 46.7712 16.6882 47.38 16.4296C47.3049 15.987 47.0102 14.4358 46.2964 12.5833ZM48.2342 15.9668C49.3732 15.1993 50.1821 13.9805 50.4078 12.5688C50.3033 12.5352 48.8842 12.0866 47.2469 12.3487C47.9122 14.1746 48.1826 15.6615 48.2342 15.9668ZM46.4911 10.5525C46.6088 10.794 46.7228 11.0399 46.8281 11.287C46.8655 11.3756 46.9021 11.4625 46.9377 11.5494C48.6803 11.3304 50.3971 11.6988 50.4705 11.7139C50.4589 10.5131 50.0287 9.41105 49.317 8.54828C49.3074 8.56186 48.4938 9.73572 46.4911 10.5525Z" fill="white"/>
<path opacity="0.1" fill-rule="evenodd" clip-rule="evenodd" d="M67.6741 11.7743C67.6741 5.62346 72.6603 0.637207 78.8112 0.637207C84.962 0.637207 89.9483 5.62346 89.9483 11.7743C89.9483 17.9252 84.962 22.9114 78.8112 22.9114C72.6603 22.9114 67.6741 17.9252 67.6741 11.7743Z" fill="white"/>
<path fill-rule="evenodd" clip-rule="evenodd" d="M78.4777 9.6897L78.501 10.0751L78.1115 10.0279C76.6937 9.84699 75.4551 9.23355 74.4034 8.20327L73.8893 7.69207L73.7568 8.06957C73.4764 8.91109 73.6556 9.7998 74.2398 10.3975C74.5514 10.7278 74.4813 10.775 73.9438 10.5784C73.7568 10.5155 73.5932 10.4683 73.5777 10.4919C73.5231 10.5469 73.7101 11.2626 73.8581 11.5458C74.0606 11.939 74.4735 12.3244 74.9254 12.5524L75.3071 12.7333L74.8552 12.7412C74.419 12.7412 74.4034 12.7491 74.4502 12.9142C74.606 13.4254 75.2214 13.9681 75.9069 14.204L76.3899 14.3692L75.9692 14.6208C75.346 14.9826 74.6137 15.1871 73.8815 15.2028C73.5309 15.2107 73.2427 15.2422 73.2427 15.2658C73.2427 15.3444 74.1931 15.7848 74.7462 15.9578C76.4055 16.469 78.3764 16.2488 79.8565 15.3759C80.9082 14.7545 81.9599 13.5198 82.4507 12.3244C82.7155 11.6873 82.9804 10.5234 82.9804 9.96496C82.9804 9.60319 83.0038 9.556 83.44 9.12344C83.6971 8.87177 83.9386 8.59651 83.9853 8.51786C84.0632 8.36843 84.0554 8.36843 83.6581 8.50213C82.996 8.73807 82.9025 8.70661 83.2297 8.3527C83.4712 8.10103 83.7594 7.64488 83.7594 7.51118C83.7594 7.48759 83.6426 7.52691 83.5101 7.59769C83.3699 7.67634 83.0583 7.79431 82.8246 7.86509L82.4039 7.99879L82.0222 7.73926C81.8119 7.59769 81.5158 7.4404 81.36 7.39321C80.9627 7.28311 80.3551 7.29884 79.9968 7.42467C79.023 7.77858 78.4076 8.69088 78.4777 9.6897Z" fill="white"/>
<path opacity="0.1" fill-rule="evenodd" clip-rule="evenodd" d="M101.085 11.7743C101.085 5.62346 106.072 0.637207 112.223 0.637207C118.373 0.637207 123.36 5.62346 123.36 11.7743C123.36 17.9252 118.373 22.9114 112.223 22.9114C106.072 22.9114 101.085 17.9252 101.085 11.7743Z" fill="white"/>
<path fill-rule="evenodd" clip-rule="evenodd" d="M116.864 7.94559C117.375 8.08585 117.778 8.49914 117.914 9.02398C118.162 9.97519 118.162 11.9599 118.162 11.9599C118.162 11.9599 118.162 13.9445 117.914 14.8958C117.778 15.4207 117.375 15.8339 116.864 15.9743C115.937 16.2291 112.223 16.2291 112.223 16.2291C112.223 16.2291 108.508 16.2291 107.581 15.9743C107.07 15.8339 106.668 15.4207 106.531 14.8958C106.283 13.9445 106.283 11.9599 106.283 11.9599C106.283 11.9599 106.283 9.97519 106.531 9.02398C106.668 8.49914 107.07 8.08585 107.581 7.94559C108.508 7.69067 112.223 7.69067 112.223 7.69067C112.223 7.69067 115.937 7.69067 116.864 7.94559ZM111.109 10.2893V14.0017L114.079 12.1455L111.109 10.2893Z" fill="white"/>
</g>
<defs>
<clipPath id="clip0_350_711">
<rect width="122.508" height="22.2742" fill="white" transform="translate(0.85144 0.637207)"/>
</clipPath>
</defs>
</svg>
